# xmcd
#
# Track frame offsets:
#	150
#	16652
#	37116
#	54807
#	76487
#	96724
#	114386
#	127937
#	144647
#	161149
#	181613
#	199304
#	220984
#	241221
#	258883
#	272434
#	300394
#
# Disc length: 4366 seconds
#
# Revision: 1
# Processed by: cddbd v1.5.2PL0 Copyright (c) Steve Scherf et al.
# Submitted via: audiograbber 1.83.01
#
DISCID=e1110c11
DTITLE=Various Artist - Best Of Spring 2007 Country Vol. 1
DYEAR=2007
DGENRE=Karaoke
TTITLE0=Gary Allan - A Feelin' Like That
TTITLE1=Jason Michael Carroll - Alyssa Lies
TTITLE2=Gretchen Wilson - Come To Bed
TTITLE3=George Strait - I Ain't Her Cowboy Anymore
TTITLE4=Darryl Worley - I Just Came Back From A War
TTITLE5=Jack Ingram - Lips Of An Angel
TTITLE6=Josh Turner - Me And God
TTITLE7=Taylor Swift - Teardrops On My Guitar
TTITLE8=Gary Allan - A Feelin' Like That (W Vocals)
TTITLE9=Jason Michael Carroll - Alyssa Lies (W Vocals)
TTITLE10=Gretchen Wilson - Come To Bed (W Vocals)
TTITLE11=George Strait - I Ain't Her Cowboy Anymore (W Vocals)
TTITLE12=Darryl Worley - I Just Came Back From A War (W Vocals)
TTITLE13=Jack Ingram - Lips Of An Angel (W Vocals)
TTITLE14=Josh Turner - Me And God (W Vocals)
TTITLE15=Taylor Swift - Teardrops On My Guitar (W Vocals)
TTITLE16=Data Track
EXTD=
EXTT0=
EXTT1=
EXTT2=
EXTT3=
EXTT4=
EXTT5=
EXTT6=
EXTT7=
EXTT8=
EXTT9=
EXTT10=
EXTT11=
EXTT12=
EXTT13=
EXTT14=
EXTT15=
EXTT16=
PLAYORDER=
